<svg xmlns="http://www.w3.org/2000/svg" width="21" height="20" viewBox="0 0 21 20">
    <g fill="none" fill-rule="evenodd">
        <g>
            <g>
                <g>
                    <g>
                        <g>
                            <path fill="#AAA" fill-rule="nonzero" d="M5 15c0 .458.375.833.833.833h.834v2.917c0 .692.558 1.25 1.25 1.25.691 0 1.25-.558 1.25-1.25v-2.917h1.666v2.917c0 .692.559 1.25 1.25 1.25.692 0 1.25-.558 1.25-1.25v-2.917h.834c.458 0 .833-.375.833-.833V6.667H5V15zM2.917 6.667c-.692 0-1.25.558-1.25 1.25v5.833c0 .692.558 1.25 1.25 1.25.691 0 1.25-.558 1.25-1.25V7.917c0-.692-.559-1.25-1.25-1.25zm14.166 0c-.691 0-1.25.558-1.25 1.25v5.833c0 .692.559 1.25 1.25 1.25.692 0 1.25-.558 1.25-1.25V7.917c0-.692-.558-1.25-1.25-1.25zM12.942 1.8L14.025.717c.167-.167.167-.425 0-.592-.167-.167-.425-.167-.592 0L12.2 1.358c-.658-.333-1.408-.525-2.2-.525-.8 0-1.55.192-2.217.525L6.542.125c-.167-.167-.425-.167-.592 0-.167.167-.167.425 0 .592l1.092 1.091C5.808 2.717 5 4.175 5 5.833h10c0-1.658-.808-3.125-2.058-4.033zM8.333 4.167H7.5v-.834h.833v.834zm4.167 0h-.833v-.834h.833v.834z" transform="translate(-660 -650) translate(400 355) translate(50 230) translate(138.5 65) translate(72)"/>
                            <path fill="#D8D8D8" fill-opacity="0" d="M0 0H20V20H0z" transform="translate(-660 -650) translate(400 355) translate(50 230) translate(138.5 65) translate(72)"/>
                        </g>
                    </g>
                </g>
            </g>
        </g>
    </g>
</svg>
