<svg xmlns="http://www.w3.org/2000/svg" xmlns:xlink="http://www.w3.org/1999/xlink" width="25" height="24" viewBox="0 0 25 24">
    <defs>
        <circle id="3percjet3a" cx="12" cy="12" r="12"/>
    </defs>
    <g fill="none" fill-rule="evenodd">
        <g>
            <g>
                <g>
                    <g>
                        <g transform="translate(-902 -610) translate(400 355) translate(50 230) translate(367.5 19) translate(85 6)">
                            <mask id="52pco146mb" fill="#fff">
                                <use xlink:href="#3percjet3a"/>
                            </mask>
                            <use fill="#FDFCDA" xlink:href="#3percjet3a"/>
                            <g fill-rule="nonzero" mask="url(#52pco146mb)">
                                <g>
                                    <path fill="#FE7D6C" d="M4.163 13.487L0.089 11.135 0.089 6.431 4.163 4.079 8.237 6.431 8.237 11.135z" transform="translate(5 2.5)"/>
                                    <path fill="#FCCDB2" d="M9.611 13.487L5.537 11.135 5.537 6.431 9.611 4.079 13.685 6.431 13.685 11.135z" transform="translate(5 2.5)"/>
                                    <path fill="#FD9E8A" d="M6.887 18.247L2.813 15.894 2.813 11.19 6.887 8.838 10.961 11.19 10.961 15.894z" transform="translate(5 2.5)"/>
                                    <path fill="#90D999" d="M6.887 5.108L6.038 4.618 6.038 3.638 6.887 3.148 7.736 3.638 7.736 4.618zM7.971 3.232L7.122 2.742 7.122 1.762 10.098.044 10.947.534 10.947 1.514zM3.826 2.091L3.826 1.111 4.674.621 6.651 1.762 6.651 2.742 5.802 3.232z" transform="translate(5 2.5)"/>
                                    <path fill="#FF5A4E" d="M2.813 12.708L4.163 13.487 6.887 11.921 5.552 11.151 5.537 9.617 2.813 11.19z" transform="translate(5 2.5)"/>
                                    <path fill="#FE7969" d="M10.961 12.708L9.611 13.487 6.887 11.921 8.222 11.151 8.222 9.609 10.961 11.19z" transform="translate(5 2.5)"/>
                                    <path fill="#FF5E52" d="M6.887 5.651L5.537 6.431 5.537 9.617 6.887 8.838 8.222 9.609 8.237 6.431z" transform="translate(5 2.5)"/>
                                    <path fill="#FF433B" d="M6.887 11.921L5.552 11.151 5.537 9.617 6.887 8.838 8.222 9.609 8.222 11.151z" transform="translate(5 2.5)"/>
                                </g>
                            </g>
                        </g>
                    </g>
                </g>
            </g>
        </g>
    </g>
</svg>
