<svg xmlns="http://www.w3.org/2000/svg" width="21" height="20" viewBox="0 0 21 20">
    <g fill="none" fill-rule="evenodd">
        <g>
            <g>
                <g>
                    <g>
                        <g>
                            <path fill="#AAA" d="M13.885 1c1.779 0 2.424.185 3.074.533.65.348 1.16.858 1.508 1.508.348.65.533 1.295.533 3.074v7.77c0 1.779-.185 2.424-.533 3.074-.348.65-.858 1.16-1.508 1.508-.65.348-1.295.533-3.074.533h-7.77c-1.779 0-2.424-.185-3.074-.533-.65-.348-1.16-.858-1.508-1.508-.348-.65-.533-1.295-.533-3.074v-7.77c0-1.779.185-2.424.533-3.074.348-.65.858-1.16 1.508-1.508C3.691 1.185 4.336 1 6.115 1h7.77zM5.827 13.323c-.431-.01-.62.147-.62.147-.191.322-.376.624-.554.907-.116.184-.152.407-.1.619.053.21.189.392.377.5.407.235.927.105 1.175-.295l.835-1.348c-.454-.348-.825-.524-1.113-.53zm5.308-6.084c-.425.544-.652 1.012-.683 1.403-.06.762.126 1.094.127 1.095l3.163 5.452c.235.403.75.54 1.155.307.404-.233.543-.749.31-1.153l-.756-1.32h1.104c.466 0 .843-.377.843-.843 0-.466-.377-.844-.843-.844h-2.071zM8.867 4.192c-.301 0-.58.16-.73.421-.151.262-.151.583 0 .844l.83 1.438-2.564 4.44H4.27c-.466 0-.844.379-.844.845 0 .466.378.843.844.843h7.374c.092-.106.136-.27.134-.495-.007-.688-.751-1.163-.846-1.192h-2.58l3.373-5.844c.15-.26.15-.582 0-.843s-.43-.422-.73-.422c-.302 0-.58.16-.731.422l-.323.558-.343-.593c-.15-.262-.43-.422-.73-.422z" transform="translate(-636 -650) translate(400 355) translate(50 230) translate(138.5 65) translate(48)"/>
                            <path fill="#D8D8D8" fill-opacity="0" d="M0 0H20V20H0z" transform="translate(-636 -650) translate(400 355) translate(50 230) translate(138.5 65) translate(48)"/>
                        </g>
                    </g>
                </g>
            </g>
        </g>
    </g>
</svg>
