<svg xmlns="http://www.w3.org/2000/svg" width="21" height="20" viewBox="0 0 21 20">
    <g fill="none" fill-rule="evenodd">
        <g>
            <g>
                <g>
                    <g>
                        <g>
                            <path fill="#AAA" d="M1.486 4.087l6.953-.946.003 6.705-6.95.04-.006-5.799zm6.95 6.532l.005 6.712-6.95-.956v-5.801l6.945.045zm.842-7.602l9.22-1.346v8.09l-9.22.073V3.017zm9.222 7.665l-.002 8.053-9.22-1.3-.012-6.768 9.234.015z" transform="translate(-612 -650) translate(400 355) translate(50 230) translate(138.5 65) translate(24)"/>
                            <path fill="#D8D8D8" fill-opacity="0" d="M0 0H20V20H0z" transform="translate(-612 -650) translate(400 355) translate(50 230) translate(138.5 65) translate(24)"/>
                        </g>
                    </g>
                </g>
            </g>
        </g>
    </g>
</svg>
